{
 "asset": {
  "version": "2.0",
  "generator": "projeto-noite tools/gen_models.py"
 },
 "scene": 0,
 "scenes": [
  {
   "name": "Scene",
   "nodes": [
    0
   ]
  }
 ],
 "nodes": [
  {
   "name": "cloud_c",
   "mesh": 0
  }
 ],
 "meshes": [
  {
   "name": "cloud_c",
   "primitives": [
    {
     "attributes": {
      "POSITION": 0,
      "NORMAL": 1,
      "TEXCOORD_0": 2
     },
     "indices": 3,
     "material": 0
    }
   ]
  }
 ],
 "materials": [
  {
   "name": "tiny_treats_1",
   "pbrMetallicRoughness": {
    "baseColorTexture": {
     "index": 0
    },
    "metallicFactor": 0,
    "roughnessFactor": 0.5
   }
  }
 ],
 "textures": [
  {
   "sampler": 0,
   "source": 0
  }
 ],
 "samplers": [
  {
   "magFilter": 9729,
   "minFilter": 9987
  }
 ],
 "images": [
  {
   "uri": "../../calm_place/homely_house/tiny_treats_texture_1.png"
  }
 ],
 "buffers": [
  {
   "uri": "cloud_c.bin",
   "byteLength": 56832
  }
 ],
 "bufferViews": [
  {
   "buffer": 0,
   "byteOffset": 0,
   "byteLength": 15552,
   "target": 34962
  },
  {
   "buffer": 0,
   "byteOffset": 15552,
   "byteLength": 15552,
   "target": 34962
  },
  {
   "buffer": 0,
   "byteOffset": 31104,
   "byteLength": 10368,
   "target": 34962
  },
  {
   "buffer": 0,
   "byteOffset": 41472,
   "byteLength": 15360,
   "target": 34963
  }
 ],
 "accessors": [
  {
   "bufferView": 0,
   "componentType": 5126,
   "count": 1296,
   "type": "VEC3",
   "min": [
    -4.9,
    0.0,
    -1.9441203954364839
   ],
   "max": [
    4.9,
    3.7439999999999998,
    2.7360944878732196
   ]
  },
  {
   "bufferView": 1,
   "componentType": 5126,
   "count": 1296,
   "type": "VEC3"
  },
  {
   "bufferView": 2,
   "componentType": 5126,
   "count": 1296,
   "type": "VEC2"
  },
  {
   "bufferView": 3,
   "componentType": 5123,
   "count": 7680,
   "type": "SCALAR"
  }
 ]
}