{
 "asset": {
  "version": "2.0",
  "generator": "projeto-noite tools/gen_models.py"
 },
 "scene": 0,
 "scenes": [
  {
   "name": "Scene",
   "nodes": [
    0
   ]
  }
 ],
 "nodes": [
  {
   "name": "smoke_puff",
   "mesh": 0
  }
 ],
 "meshes": [
  {
   "name": "smoke_puff",
   "primitives": [
    {
     "attributes": {
      "POSITION": 0,
      "NORMAL": 1,
      "TEXCOORD_0": 2
     },
     "indices": 3,
     "material": 0
    }
   ]
  }
 ],
 "materials": [
  {
   "name": "tiny_treats_1",
   "pbrMetallicRoughness": {
    "baseColorTexture": {
     "index": 0
    },
    "metallicFactor": 0,
    "roughnessFactor": 0.5
   }
  }
 ],
 "textures": [
  {
   "sampler": 0,
   "source": 0
  }
 ],
 "samplers": [
  {
   "magFilter": 9729,
   "minFilter": 9987
  }
 ],
 "images": [
  {
   "uri": "../../calm_place/homely_house/tiny_treats_texture_1.png"
  }
 ],
 "buffers": [
  {
   "uri": "smoke_puff.bin",
   "byteLength": 9120
  }
 ],
 "bufferViews": [
  {
   "buffer": 0,
   "byteOffset": 0,
   "byteLength": 2520,
   "target": 34962
  },
  {
   "buffer": 0,
   "byteOffset": 2520,
   "byteLength": 2520,
   "target": 34962
  },
  {
   "buffer": 0,
   "byteOffset": 5040,
   "byteLength": 1680,
   "target": 34962
  },
  {
   "buffer": 0,
   "byteOffset": 6720,
   "byteLength": 2400,
   "target": 34963
  }
 ],
 "accessors": [
  {
   "bufferView": 0,
   "componentType": 5126,
   "count": 210,
   "type": "VEC3",
   "min": [
    -0.4,
    0.0,
    -0.35
   ],
   "max": [
    0.41000000000000003,
    0.59,
    0.26
   ]
  },
  {
   "bufferView": 1,
   "componentType": 5126,
   "count": 210,
   "type": "VEC3"
  },
  {
   "bufferView": 2,
   "componentType": 5126,
   "count": 210,
   "type": "VEC2"
  },
  {
   "bufferView": 3,
   "componentType": 5123,
   "count": 1200,
   "type": "SCALAR"
  }
 ]
}